<?xml version="1.0" standalone="no"?>
<!DOCTYPE svg PUBLIC "-//W3C//DTD SVG 20010904//EN"
 "http://www.w3.org/TR/2001/REC-SVG-20010904/DTD/svg10.dtd">
<svg version="1.0" xmlns="http://www.w3.org/2000/svg"
 width="2000.000000pt" height="474.000000pt" viewBox="0 0 2000.000000 474.000000"
 preserveAspectRatio="xMidYMid meet">

<g transform="translate(0.000000,474.000000) scale(0.100000,-0.100000)"
fill="#000000" stroke="none">
<path d="M2363 3947 c-1288 -430 -2345 -785 -2349 -789 -6 -7 3124 -3148 3138
-3148 3 0 358 1056 789 2347 430 1292 784 2354 787 2361 2 6 -2 12 -9 11 -8 0
-1068 -352 -2356 -782z"/>
<path d="M6530 2205 l0 -1345 250 0 250 0 0 649 c0 578 -6 884 -25 1204 -6 97
-6 98 15 95 19 -3 53 -89 268 -685 136 -376 249 -683 252 -683 3 0 116 307
252 683 215 595 249 682 268 685 21 3 21 2 15 -95 -18 -311 -25 -638 -25
-1210 l0 -643 250 0 250 0 0 1345 0 1345 -319 0 -319 0 -26 -67 c-14 -38 -88
-241 -165 -452 -78 -211 -143 -386 -145 -389 -18 -17 -49 56 -196 457 l-164
451 -343 0 -343 0 0 -1345z"/>
<path d="M15950 2206 l0 -1346 290 0 290 0 0 489 0 489 318 4 c285 4 325 7
397 26 222 60 404 211 491 408 60 135 88 336 73 522 -29 379 -216 620 -559
723 -74 23 -86 23 -687 27 l-613 3 0 -1345z m1075 858 c81 -24 137 -81 162
-161 25 -83 24 -346 -1 -418 -54 -149 -151 -184 -513 -185 l-143 0 0 396 0
397 218 -6 c168 -4 230 -9 277 -23z"/>
<path d="M18260 3340 l0 -210 290 0 290 0 0 -925 0 -925 -290 0 -290 0 0 -210
0 -210 870 0 870 0 0 210 0 210 -290 0 -290 0 0 925 0 925 290 0 290 0 0 210
0 210 -870 0 -870 0 0 -210z"/>
<path d="M9740 2893 c-160 -9 -318 -41 -418 -85 -133 -58 -270 -163 -333 -255
-27 -38 -29 -47 -18 -59 8 -7 76 -69 153 -137 l138 -123 77 75 c121 121 240
170 408 171 140 0 225 -30 290 -104 51 -58 73 -126 80 -253 l6 -103 -205 0
c-233 0 -384 -12 -512 -42 -326 -75 -485 -244 -502 -533 -25 -418 284 -680
739 -625 254 30 408 141 491 352 20 50 33 48 41 -4 20 -120 110 -233 222 -278
54 -22 74 -24 286 -28 l227 -4 0 206 0 206 -109 0 -109 0 -4 513 c-4 486 -5
516 -26 590 -90 325 -352 500 -777 519 -49 3 -115 3 -145 1z m378 -1335 c-3
-117 -8 -163 -22 -193 -48 -111 -173 -176 -336 -177 -145 -1 -236 39 -277 122
-30 58 -32 194 -4 255 32 71 109 121 211 138 14 2 117 5 229 6 l203 1 -4 -152z"/>
<path d="M12375 2889 c-85 -8 -198 -46 -265 -89 -73 -47 -161 -147 -206 -233
-21 -43 -45 -77 -51 -77 -10 0 -13 43 -13 180 l0 180 -285 0 -285 0 0 -995 0
-995 285 0 285 0 0 678 c0 761 -2 738 72 811 136 136 415 143 530 12 39 -44
62 -100 77 -182 7 -45 11 -267 11 -692 l0 -627 285 0 286 0 -4 723 c-3 708 -3
724 -25 807 -34 131 -103 260 -177 334 -126 126 -313 185 -520 165z"/>
<path d="M13419 2828 c5 -13 81 -201 169 -418 390 -958 600 -1478 612 -1510
12 -34 9 -45 -47 -200 l-60 -165 -242 -3 -241 -2 0 -220 0 -220 258 0 c285 0
337 7 451 62 103 49 216 169 281 297 17 34 645 1574 945 2319 l34 82 -292 -2
-291 -3 -147 -414 c-81 -228 -187 -546 -235 -707 -68 -229 -91 -294 -104 -294
-13 0 -37 66 -108 293 -50 160 -156 479 -235 707 l-143 415 -307 3 -307 2 9
-22z"/>
</g>
</svg>
